<?xml version="1.0" encoding="UTF-8"?>
<!-- Generator: visioncortex VTracer 0.6.4 -->
<svg version="1.1" xmlns="http://www.w3.org/2000/svg" width="600" height="496">
<path d="M0 0 C198 0 396 0 600 0 C600 163.68 600 327.36 600 496 C402 496 204 496 0 496 C0 332.32 0 168.64 0 0 Z " fill="#F7F4E9" transform="translate(0,0)"/>
<path d="M0 0 C2.1 2.1 2.65 3.34 3.66 6.07 C4.11 7.29 4.11 7.29 4.57 8.54 C4.87 9.39 5.18 10.25 5.5 11.12 C5.81 11.96 6.12 12.79 6.43 13.64 C13.85 33.94 15.04 58.2 9 79 C8.8 79.7 8.6 80.4 8.4 81.12 C1.79 103.98 -10.53 122.06 -27 139 C-27.47 139.49 -27.94 139.98 -28.43 140.49 C-34.88 147.22 -41.65 153.27 -49 159 C-49.59 159.47 -50.18 159.93 -50.79 160.41 C-60.24 167.87 -69.98 174.8 -79.96 181.54 C-95.09 191.76 -109.59 202.57 -123 215 C-123.6 215.54 -124.21 216.08 -124.83 216.63 C-139.95 230.72 -152.63 253.75 -154.19 274.56 C-155.26 310.83 -141.66 338.14 -118 365 C-127.12 360.86 -134.75 352.76 -142 346 C-142.76 345.29 -143.53 344.58 -144.31 343.85 C-169.77 319.36 -184.51 282.73 -185.48 247.64 C-185.58 241.47 -185.62 235.3 -185.62 229.12 C-185.32 203.01 -185.32 203.01 -190.25 177.5 C-190.47 176.8 -190.68 176.1 -190.91 175.37 C-196.22 158.51 -204.56 135.29 -220 125 C-219.59 125.52 -219.18 126.05 -218.75 126.59 C-205.82 143.94 -194.3 171.04 -195 193 C-199.81 191.48 -202.97 188.77 -206.69 185.5 C-207.3 184.96 -207.92 184.42 -208.55 183.87 C-230.35 164.65 -244.96 140.44 -247.16 110.84 C-247.35 106.53 -247.34 102.23 -247.28 97.91 C-247.25 95.71 -247.24 93.51 -247.23 91.3 C-247.16 79.71 -247.16 79.71 -246 76 C-231.83 81.26 -218.46 92.24 -208 103 C-207.2 103.81 -206.39 104.61 -205.56 105.45 C-182.4 129.78 -177.93 162.9 -177 195 C-176.55 193.78 -176.1 192.55 -175.64 191.29 C-168.39 172.1 -158.22 155.42 -146 139 C-145.56 138.4 -145.11 137.8 -144.66 137.18 C-133.25 121.78 -119.53 108.37 -105.91 94.95 C-101.05 90.14 -96.42 85.22 -92 80 C-94.33 80 -96.92 83.29 -98.69 84.81 C-103.36 88.82 -108.12 92.68 -113 96.44 C-119.47 101.46 -125.53 106.84 -131.44 112.51 C-132.46 113.48 -133.49 114.46 -134.52 115.42 C-147.42 127.49 -157.74 141.88 -167.38 156.62 C-167.91 157.41 -168.45 158.19 -169 159 C-169.33 159 -169.66 159 -170 159 C-169.41 142.25 -165.56 126.95 -158 112 C-157.2 110.41 -157.2 110.41 -156.38 108.79 C-143.73 85.64 -122.35 70.78 -99.72 58.49 C-94.31 55.53 -88.93 52.49 -83.56 49.44 C-81.95 48.54 -81.95 48.54 -80.3 47.62 C-73.78 43.9 -68.03 39.81 -62.36 34.9 C-60.28 33.23 -58.43 32.06 -56 31 C-54.93 58.53 -63.66 88.02 -82 109 C-82.71 109.82 -83.42 110.64 -84.16 111.48 C-86.4 114.02 -88.69 116.52 -91 119 C-91.6 119.67 -92.2 120.34 -92.82 121.02 C-100.9 129.61 -111 136.07 -120.82 142.49 C-146.12 159.05 -163.68 180.06 -171 210 C-172.3 216.38 -173.11 222.49 -173 229 C-172.66 228.02 -172.32 227.04 -171.97 226.03 C-156.64 182.9 -122.22 157.46 -84.83 133.83 C-75.33 127.82 -65.97 121.76 -57 115 C-56.43 114.57 -55.86 114.14 -55.27 113.7 C-42.49 104.06 -30.68 93.84 -21 81 C-20.4 80.23 -19.8 79.45 -19.18 78.65 C-4.92 59.46 0.2 38.56 0.06 15 C0.06 13.54 0.05 12.09 0.05 10.63 C0.04 7.09 0.02 3.54 0 0 Z " fill="#313B24" transform="translate(362,39)"/>
<path d="M0 0 C15.2 10.91 25.07 32.19 28.54 50.1 C29.41 55.58 29.75 61.1 30.12 66.62 C30.21 67.82 30.3 69.01 30.39 70.25 C30.6 73.16 30.8 76.08 31 79 C32.75 79.03 34.5 79.05 36.25 79.06 C37.71 79.08 37.71 79.08 39.2 79.1 C41.66 79.01 43.66 78.71 46 78 C44.5 81.82 42.41 83.75 39 86 C35.69 86.75 35.69 86.75 33 87 C39.16 98.97 48.69 108.33 58.84 117 C61.88 119.81 64.55 122.32 65.64 126.39 C65.74 131.45 65.19 134.45 61.88 138.38 C58.83 141.43 55.68 143.77 52 146 C51.34 146.66 50.68 147.32 50 148 C50.09 152.54 50.56 154.51 53.62 157.94 C56.41 161.52 56.41 161.52 56.19 165 C55.28 169.72 52.57 171.96 49 175 C49.66 175.68 50.32 176.36 51 177.06 C53.52 180.76 53.71 182.6 53 187 C50.62 189.75 50.62 189.75 48 192 C45.51 195.73 45.58 198.68 46 203 C46.33 204.09 46.66 205.19 47 206.31 C48.71 212.62 49.14 219.18 46.56 225.31 C43.21 231.07 37.69 234.2 31.45 236.06 C26.7 237.2 22.1 237.3 17.23 237.31 C15.36 237.33 13.48 237.36 11.6 237.38 C8.68 237.41 5.76 237.44 2.84 237.46 C-14.98 237.59 -31.18 238.78 -44.83 251.57 C-62.33 271.21 -64.18 295.96 -63 321 C-62.37 327.37 -61.36 333.82 -58.84 339.73 C-58 342 -58 342 -59 345 C-59.5 343.51 -59.5 343.51 -60 342 C-61.32 341.31 -62.66 340.65 -64 340 C-65.55 338.46 -65.55 338.46 -67.02 336.66 C-67.84 335.66 -67.84 335.66 -68.67 334.65 C-69.23 333.94 -69.79 333.23 -70.38 332.5 C-71.25 331.4 -71.25 331.4 -72.14 330.28 C-89.51 308.23 -98.35 281.08 -96 253 C-94.25 240.02 -88.41 228.13 -78 220 C-64.74 211.98 -48.78 211.94 -33.83 215.16 C-28.16 216.57 -22.58 218.26 -17 220 C-14.55 220.73 -12.1 221.45 -9.65 222.16 C-8.23 222.58 -6.81 223 -5.4 223.44 C5.97 226.91 21.94 228.68 33 223 C35.67 218.82 36.14 214.88 36.12 210 C36.13 208.95 36.13 207.9 36.13 206.81 C36.12 203.92 36.12 203.92 35 201 C34.39 197.03 34.01 193.46 36.34 190.03 C38 188.25 38 188.25 39.69 186.7 C41.51 184.7 41.51 184.7 41 180 C36.71 178.35 32.42 176.7 28 175 C30.56 172.44 31.76 171.47 34.88 170.06 C38.31 168.42 41.12 166.52 44 164 C43.58 161.08 43.17 159.23 41.44 156.81 C39.28 152.59 39.2 148.64 40 144 C42.09 141.19 44.36 139.47 47.15 137.39 C47.88 136.81 48.62 136.23 49.38 135.62 C50.08 135.1 50.79 134.58 51.52 134.04 C53.33 131.96 53.33 131.96 53.01 128.59 C51.85 124.47 50.55 122.89 47.44 120 C46.53 119.14 45.63 118.29 44.69 117.41 C42.45 115.4 40.18 113.44 37.88 111.5 C27.8 102.83 20.82 92.19 19 79 C18.74 74.86 18.69 70.71 18.62 66.56 C17.98 44.37 12.54 23.05 1.03 3.86 C0 2 0 2 0 0 Z " fill="#333A24" transform="translate(382,75)"/>
<path d="M0 0 C2.62 0.81 5.24 1.58 7.87 2.34 C11.81 3.47 15.74 4.64 19.66 5.83 C19.66 6.16 19.66 6.49 19.66 6.83 C18.72 6.82 17.78 6.8 16.8 6.79 C13.26 6.76 9.71 6.73 6.16 6.72 C4.64 6.71 3.11 6.69 1.59 6.67 C-14.44 6.5 -29.91 7.66 -42.34 19.08 C-54.37 32.85 -57.59 52.04 -56.88 69.78 C-55.68 86.57 -50.82 104.22 -42.34 118.83 C-41.35 119.16 -40.36 119.49 -39.34 119.83 C-38.85 122.8 -38.85 122.8 -38.34 125.83 C-39 125.5 -39.66 125.17 -40.34 124.83 C-40.34 124.17 -40.34 123.51 -40.34 122.83 C-41.24 122.43 -41.24 122.43 -42.15 122.03 C-44.49 120.75 -45.69 119.54 -47.36 117.48 C-47.91 116.82 -48.45 116.16 -49.01 115.47 C-49.85 114.41 -49.85 114.41 -50.72 113.33 C-51.3 112.59 -51.88 111.86 -52.48 111.11 C-69.85 89.06 -78.69 61.9 -76.34 33.83 C-74.59 20.85 -68.75 8.96 -58.34 0.83 C-40.46 -9.98 -19 -5.9 0 0 Z " fill="#B96544" transform="translate(362.34033203125,294.17431640625)"/>
<path d="M0 0 C0.5 0.99 0.5 0.99 1 2 C-4.02 14.78 -14.48 25.55 -23.69 35.44 C-24.29 36.09 -24.9 36.74 -25.52 37.41 C-29.19 41.28 -33.02 44.86 -37.07 48.33 C-39.95 50.82 -42.72 53.41 -45.5 56 C-49.01 59.26 -52.52 62.48 -56.19 65.56 C-76.27 83.12 -90.49 108.48 -94 135 C-94.76 147.56 -93.03 159.63 -91 172 C-95.56 166.53 -97.63 159.62 -100 153 C-100.42 151.83 -100.84 150.65 -101.28 149.44 C-106.69 131.56 -106.64 110.16 -99 93 C-98.49 91.81 -97.98 90.62 -97.46 89.39 C-87.52 67.84 -70.18 53.13 -51 40 C-49.59 39.03 -48.19 38.06 -46.79 37.09 C-44.13 35.26 -41.47 33.43 -38.8 31.61 C-37.54 30.74 -36.27 29.87 -35 29 C-34.4 28.59 -33.79 28.17 -33.17 27.75 C-21.24 19.53 -10.02 10.5 0 0 Z " fill="#B96241" transform="translate(325,202)"/>
<path d="M0 0 C0.5 0.99 0.5 0.99 1 2 C-4.02 14.78 -14.48 25.55 -23.69 35.44 C-24.29 36.09 -24.9 36.74 -25.52 37.41 C-29.19 41.28 -33.02 44.86 -37.07 48.33 C-39.95 50.82 -42.72 53.41 -45.5 56 C-49.01 59.26 -52.52 62.48 -56.19 65.56 C-76.27 83.12 -90.49 108.48 -94 135 C-94.76 147.56 -93.03 159.63 -91 172 C-93.79 168.67 -95.42 165.07 -97 161.06 C-97.39 160.08 -97.39 160.08 -97.79 159.08 C-100.2 152.85 -101.74 146.56 -103 140 C-102.01 140.33 -101.02 140.66 -100 141 C-99.05 143.94 -99.05 143.94 -98.31 147.56 C-97.94 149.36 -97.94 149.36 -97.55 151.19 C-97.37 152.12 -97.19 153.05 -97 154 C-96.97 153.32 -96.95 152.64 -96.92 151.94 C-96.81 148.81 -96.68 145.69 -96.56 142.56 C-96.52 141.49 -96.48 140.42 -96.44 139.32 C-96.2 133.17 -95.76 127.11 -95 121 C-94.34 121 -93.68 121 -93 121 C-92.98 120.09 -92.98 120.09 -92.96 119.16 C-92.56 112.15 -90.49 107.06 -87 101 C-86.34 101 -85.68 101 -85 101 C-85.1 99.92 -85.1 99.92 -85.21 98.82 C-84.95 95.28 -83.78 93.71 -81.69 90.88 C-80.77 89.6 -80.77 89.6 -79.82 88.3 C-78 86 -78 86 -76.39 84.41 C-74.47 82.47 -73.35 80.15 -72.04 77.79 C-70.59 75.3 -68.94 73.13 -67 71 C-66.34 71 -65.68 71 -65 71 C-64.5 69.51 -64.5 69.51 -64 68 C-59.54 64 -59.54 64 -57 64 C-57 63.01 -57 62.02 -57 61 C-52.77 57 -52.77 57 -49 57 C-49 56.01 -49 55.02 -49 54 C-43.74 50 -43.74 50 -41 50 C-41 49.01 -41 48.02 -41 47 C-40.01 47 -39.02 47 -38 47 C-37.73 46.2 -37.46 45.39 -37.19 44.56 C-36.8 43.72 -36.4 42.87 -36 42 C-35.01 41.67 -34.02 41.34 -33 41 C-32.67 40.01 -32.34 39.02 -32 38 C-30.56 36.31 -30.56 36.31 -29 35 C-28.34 35 -27.68 35 -27 35 C-26.69 34.16 -26.69 34.16 -26.38 33.31 C-24.5 30.15 -21.81 28.33 -19 26 C-18.5 24.51 -18.5 24.51 -18 23 C-17.01 23 -16.02 23 -15 23 C-14.73 22.44 -14.46 21.89 -14.19 21.31 C-12.9 18.8 -11.47 16.41 -10 14 C-10.42 14.39 -10.85 14.77 -11.29 15.17 C-14.28 17.83 -17.16 20.21 -20.69 22.12 C-23.79 23.88 -25.55 25.47 -28 28 C-35.37 34 -35.37 34 -38 34 C-38.33 34.99 -38.66 35.98 -39 37 C-40.81 37.88 -40.81 37.88 -43 38.56 C-45.15 39.21 -45.15 39.21 -47 40 C-47.5 40.99 -47.5 40.99 -48 42 C-49.66 43.01 -51.33 44.01 -53 45 C-55.64 47.07 -58.21 49.21 -60.79 51.36 C-63 53 -63 53 -65 53 C-65 53.66 -65 54.32 -65 55 C-69.18 59.65 -69.18 59.65 -71.89 60.82 C-74.85 62.48 -76.43 64.76 -78.5 67.44 C-81.12 70.8 -83.45 73.62 -87 76 C-87.66 75.67 -88.32 75.34 -89 75 C-78.13 60.55 -65.81 50.18 -51 40 C-50.29 39.51 -49.58 39.02 -48.86 38.52 C-45.51 36.21 -42.16 33.91 -38.8 31.61 C-37.54 30.74 -36.27 29.87 -35 29 C-34.4 28.59 -33.79 28.17 -33.17 27.75 C-21.24 19.53 -10.02 10.5 0 0 Z " fill="#A86A50" transform="translate(325,202)"/>
<path d="M0 0 C2.62 0.81 5.24 1.58 7.87 2.34 C11.81 3.47 15.74 4.64 19.66 5.83 C19.66 6.16 19.66 6.49 19.66 6.83 C18.72 6.82 17.78 6.8 16.8 6.79 C13.26 6.76 9.71 6.73 6.16 6.72 C4.64 6.71 3.11 6.69 1.59 6.67 C-14.44 6.5 -29.91 7.66 -42.34 19.08 C-54.37 32.85 -57.59 52.04 -56.88 69.78 C-55.68 86.57 -50.82 104.22 -42.34 118.83 C-40.86 119.32 -40.86 119.32 -39.34 119.83 C-38.85 122.8 -38.85 122.8 -38.34 125.83 C-39 125.5 -39.66 125.17 -40.34 124.83 C-40.34 124.17 -40.34 123.51 -40.34 122.83 C-41.24 122.43 -41.24 122.43 -42.15 122.03 C-44.49 120.75 -45.69 119.54 -47.36 117.48 C-47.91 116.82 -48.45 116.15 -49.01 115.47 C-49.57 114.76 -50.14 114.05 -50.72 113.33 C-51.59 112.23 -51.59 112.23 -52.48 111.11 C-58.87 103.01 -63.49 94.75 -67.78 85.39 C-68.14 84.59 -68.51 83.8 -68.89 82.98 C-69.39 81.85 -69.39 81.85 -69.9 80.7 C-70.2 80.03 -70.5 79.36 -70.81 78.66 C-71.34 76.83 -71.34 76.83 -70.34 73.83 C-68.61 76.43 -67.45 78.73 -66.22 81.58 C-62.96 88.86 -59.15 95.82 -55.34 102.83 C-55.01 102.83 -54.68 102.83 -54.34 102.83 C-54.82 97.39 -55.67 92.22 -56.84 86.89 C-58.23 80.21 -58.8 73.71 -59.05 66.9 C-59.16 63.93 -59.27 61.12 -59.95 58.21 C-60.48 54.98 -59.81 52.49 -59.03 49.33 C-58.76 48.22 -58.5 47.12 -58.23 45.98 C-57.43 43.15 -56.47 40.53 -55.34 37.83 C-54.91 36.46 -54.91 36.46 -54.47 35.08 C-53.01 30.87 -51.19 26.87 -49.34 22.83 C-48.68 22.83 -48.02 22.83 -47.34 22.83 C-47.34 21.84 -47.34 20.85 -47.34 19.83 C-46.68 19.83 -46.02 19.83 -45.34 19.83 C-45.01 18.84 -44.68 17.85 -44.34 16.83 C-39.88 12.83 -39.88 12.83 -37.34 12.83 C-37.34 12.17 -37.34 11.51 -37.34 10.83 C-28.98 6.93 -20.59 4.55 -11.34 4.33 C-9.13 4.02 -9.13 4.02 -8.06 1.79 C-7.82 1.14 -7.59 0.49 -7.34 -0.17 C-8.23 -0.14 -8.23 -0.14 -9.13 -0.1 C-9.92 -0.09 -10.71 -0.07 -11.53 -0.05 C-12.31 -0.03 -13.08 -0 -13.88 0.02 C-16.34 -0.17 -16.34 -0.17 -18.64 -1.14 C-22.17 -2.49 -25.61 -2.67 -29.34 -2.86 C-30.04 -2.91 -30.74 -2.96 -31.46 -3 C-35.29 -3.22 -38.61 -3.02 -42.34 -2.17 C-43.94 -2.11 -45.55 -2.09 -47.15 -2.11 C-47.94 -2.12 -48.73 -2.13 -49.55 -2.14 C-50.14 -2.15 -50.73 -2.16 -51.34 -2.17 C-37.73 -11.25 -14.35 -4.46 0 0 Z " fill="#A66D51" transform="translate(362.34033203125,294.17431640625)"/>
<path d="M0 0 C1.1 0 2.2 0 3.34 0 C8.09 0.03 12.48 0.13 17.12 1.19 C17.12 1.52 17.12 1.85 17.12 2.19 C16.13 2.2 15.13 2.21 14.1 2.22 C10.34 2.26 6.59 2.32 2.83 2.4 C1.22 2.42 -0.4 2.44 -2.02 2.46 C-16.73 2.6 -28.85 4.67 -40.43 14.51 C-42.41 16.81 -43.6 19.28 -44.94 22 C-45.7 23.53 -45.7 23.53 -46.47 25.08 C-47.83 28.08 -48.88 31.05 -49.88 34.19 C-50.14 34.91 -50.41 35.64 -50.69 36.39 C-56.05 51.09 -55.5 70.07 -50.64 84.8 C-49.65 87.89 -48.97 91.01 -48.3 94.18 C-47.87 96.2 -47.39 98.19 -46.88 100.19 C-45.88 100.19 -44.89 100.19 -43.88 100.19 C-43.55 98.87 -43.21 97.55 -42.88 96.19 C-42.34 98.77 -41.82 101.35 -41.31 103.94 C-41.16 104.67 -41.01 105.4 -40.85 106.15 C-40.13 109.85 -39.78 112.58 -40.88 116.19 C-46.46 105.76 -50.81 95.61 -53.88 84.19 C-54.19 83.1 -54.51 82 -54.84 80.88 C-59.87 61.49 -58.05 39.95 -49.06 22 C-42.7 11.64 -33.26 4.61 -21.43 1.56 C-14.27 0.09 -7.28 -0.08 0 0 Z " fill="#453116" transform="translate(361.875,299.8125)"/>
<path d="M0 0 C0 0.66 0 1.32 0 2 C-0.99 2 -1.98 2 -3 2 C-3.24 2.58 -3.49 3.16 -3.74 3.76 C-5.22 6.38 -6.92 7.84 -9.19 9.81 C-13.18 13.71 -15.7 17.58 -18.06 22.56 C-18.36 23.18 -18.66 23.79 -18.97 24.42 C-21.12 29.24 -21.16 32.85 -21 38 C-21.24 39.43 -21.24 39.43 -21.49 40.88 C-21.99 43.93 -22.11 46.74 -22.1 49.84 C-22.09 50.9 -22.09 51.96 -22.09 53.06 C-22.08 54.15 -22.07 55.25 -22.06 56.38 C-22.06 57.49 -22.05 58.61 -22.05 59.76 C-22.04 62.51 -22.02 65.25 -22 68 C-22.33 68 -22.66 68 -23 68 C-27.11 49.94 -26.52 31.39 -17.81 14.84 C-14.32 9.36 -7.2 0 0 0 Z " fill="#A6735B" transform="translate(311,292)"/>
<path d="M0 0 C0.33 0 0.66 0 1 0 C1.33 5.94 1.66 11.88 2 18 C2.33 18 2.66 18 3 18 C3.04 18.75 3.07 19.5 3.11 20.27 C3.51 26.37 4.32 31.81 6.24 37.61 C7.22 40.7 7.9 43.82 8.57 46.99 C9 49.01 9.49 51 10 53 C10.99 53 11.98 53 13 53 C13.33 51.68 13.66 50.36 14 49 C14.53 51.58 15.05 54.16 15.56 56.75 C15.71 57.48 15.87 58.21 16.02 58.96 C16.75 62.67 17.1 65.39 16 69 C10.41 58.58 6.07 48.43 3 37 C2.68 35.91 2.36 34.82 2.03 33.69 C-0.84 22.61 -0.29 11.36 0 0 Z " fill="#53381D" transform="translate(305,347)"/>
<path d="M0 0 C1.22 3.66 0.65 4.68 -0.62 8.25 C-0.99 9.33 -1.36 10.4 -1.75 11.51 C-2.58 13.84 -3.45 16.15 -4.35 18.46 C-8.16 28.72 -8.87 38.13 -9 49 C-9.33 49 -9.66 49 -10 49 C-11.94 29.99 -9.23 16.75 0 0 Z " fill="#AB6E55" transform="translate(232,283)"/>
<path d="M0 0 C0.99 0.33 1.98 0.66 3 1 C3.99 5.95 4.98 10.9 6 16 C6.66 16 7.32 16 8 16 C8 14.35 8 12.7 8 11 C8.33 11 8.66 11 9 11 C9.99 17.93 10.98 24.86 12 32 C9.31 28.41 7.62 25.17 6 21.06 C5.74 20.41 5.48 19.76 5.21 19.08 C2.8 12.85 1.26 6.56 0 0 Z " fill="#A4715A" transform="translate(222,342)"/>
<path d="M0 0 C6.47 0.6 12.31 2.12 18.5 4.06 C19.88 4.48 19.88 4.48 21.28 4.92 C23.52 5.6 25.76 6.3 28 7 C28 7.33 28 7.66 28 8 C14.14 7.5 14.14 7.5 0 7 C0 6.67 0 6.34 0 6 C3.08 5.71 3.08 5.71 6.15 5.41 C6.76 5.28 7.37 5.14 8 5 C8.33 4.34 8.66 3.68 9 3 C4.55 2.01 4.55 2.01 0 1 C0 0.67 0 0.34 0 0 Z " fill="#9C6C50" transform="translate(354,293)"/>
<path d="M0 0 C0 0.66 0 1.32 0 2 C-0.99 2 -1.98 2 -3 2 C-3.36 2.86 -3.36 2.86 -3.73 3.73 C-5.25 6.45 -7.09 8.14 -9.38 10.25 C-13.48 14.23 -15.8 17.75 -18 23 C-19.32 19.03 -18.73 17.81 -17 14 C-13.48 9.13 -6.53 0 0 0 Z " fill="#A9694F" transform="translate(311,292)"/>
<path d="M0 0 C0.33 0 0.66 0 1 0 C1.12 7.75 1.12 7.75 0 10 C-0.05 12.84 -0.04 15.66 0 18.5 C0.06 25.08 -0.16 31.46 -1 38 C-1.33 38 -1.66 38 -2 38 C-4.17 24.97 -3.34 12.72 0 0 Z " fill="#EFD3C0" transform="translate(233,323)"/>
<path d="M0 0 C0.33 0.99 0.66 1.98 1 3 C2.32 3.33 3.64 3.66 5 4 C3.02 9.94 1.04 15.88 -1 22 C-1.33 22 -1.66 22 -2 22 C-2.26 14.47 -1.28 7.41 0 0 Z " fill="#DDDFD0" transform="translate(190,249)"/>
<path d="M0 0 C0 3.75 -1.31 4.67 -3.86 7.23 C-4.4 7.75 -4.94 8.27 -5.5 8.81 C-6.05 9.35 -6.59 9.89 -7.15 10.44 C-10.69 13.88 -14.34 16.98 -18.38 19.82 C-20.47 21.34 -22.25 23.1 -24 25 C-24.99 24.67 -25.98 24.34 -27 24 C-26.54 23.6 -26.08 23.2 -25.6 22.79 C-20.87 18.66 -16.2 14.49 -11.54 10.29 C-7.71 6.84 -3.86 3.42 0 0 Z " fill="#FAE2D0" transform="translate(298,240)"/>
<path d="M0 0 C0 3.63 -0.63 4.03 -3.06 6.57 C-3.69 7.24 -4.33 7.91 -4.98 8.6 C-5.64 9.29 -6.31 9.98 -7 10.69 C-8 11.74 -8 11.74 -9.02 12.81 C-10.68 14.55 -12.33 16.28 -14 18 C-14.66 16.68 -15.32 15.36 -16 14 C-14.27 12.41 -12.54 10.83 -10.81 9.25 C-9.37 7.93 -9.37 7.93 -7.89 6.58 C-5.33 4.29 -2.71 2.12 0 0 Z " fill="#DEE1D1" transform="translate(271,116)"/>
<path d="M0 0 C0.66 0 1.32 0 2 0 C2.33 0.99 2.66 1.98 3 3 C0.03 5.97 -2.94 8.94 -6 12 C-6.66 11.67 -7.32 11.34 -8 11 C-7.44 7.76 -6.59 6.07 -4 4 C-3.34 4 -2.68 4 -2 4 C-1.34 2.68 -0.68 1.36 0 0 Z " fill="#B06F55" transform="translate(300,233)"/>
<path d="M0 0 C0.99 0.33 1.98 0.66 3 1 C3.37 2.58 3.72 4.16 4.06 5.75 C4.26 6.63 4.46 7.51 4.66 8.42 C5 10.99 4.81 12.57 4 15 C3.15 13.61 2.32 12.21 1.5 10.81 C1.04 10.04 0.57 9.26 0.09 8.46 C-1.12 5.74 -1.28 3.94 -1 1 C-0.67 0.67 -0.34 0.34 0 0 Z " fill="#463824" transform="translate(317,401)"/>
<path d="M0 0 C0.33 0 0.66 0 1 0 C1.05 0.99 1.1 1.98 1.15 3 C1.53 11.46 1.53 11.46 3.12 19.75 C4 23 4 23 3 26 C2.34 25.67 1.68 25.34 1 25 C-0 22 -0.12 20.03 -0.1 16.89 C-0.09 15.91 -0.09 14.93 -0.09 13.92 C-0.08 12.89 -0.07 11.87 -0.06 10.81 C-0.06 9.78 -0.05 8.74 -0.05 7.67 C-0.04 5.12 -0.02 2.56 0 0 Z " fill="#9C6247" transform="translate(221,317)"/>
<path d="M0 0 C0.64 1.81 0.64 1.81 1 4 C-0.75 6.28 -2.43 8.22 -4.44 10.25 C-4.97 10.8 -5.5 11.36 -6.04 11.93 C-7.35 13.3 -8.67 14.65 -10 16 C-10.33 15.01 -10.66 14.02 -11 13 C-10.36 12.4 -9.72 11.8 -9.06 11.19 C-6.8 9.09 -6.8 9.09 -6 6 C-5.01 6 -4.02 6 -3 6 C-2.69 5.38 -2.38 4.76 -2.06 4.12 C-1.38 2.75 -0.69 1.38 0 0 Z " fill="#A6684C" transform="translate(313,219)"/>
<path d="M0 0 C1.54 2.83 2.43 5.39 3.07 8.55 C3.33 9.81 3.33 9.81 3.6 11.11 C3.77 11.98 3.95 12.85 4.12 13.75 C4.31 14.64 4.49 15.53 4.68 16.44 C5.12 18.63 5.56 20.81 6 23 C1.71 20.14 1.69 17.06 0.56 12.2 C-0.17 8.02 -0.21 4.23 0 0 Z " fill="#9B684B" transform="translate(305,370)"/>
<path d="M0 0 C0.33 0.66 0.66 1.32 1 2 C0.07 4.13 0.07 4.13 -1.31 6.56 C-1.99 7.77 -1.99 7.77 -2.68 9 C-4 11 -4 11 -6 12 C-6 11.01 -6 10.02 -6 9 C-6.99 9.99 -7.98 10.98 -9 12 C-9.66 11.67 -10.32 11.34 -11 11 C-7.37 7.37 -3.74 3.74 0 0 Z " fill="#956B56" transform="translate(325,202)"/>
<path d="M0 0 C2.69 2.69 3.06 5.38 4 9 C3.67 9.33 3.34 9.66 3 10 C2.76 12.86 2.58 15.7 2.44 18.56 C2.39 19.37 2.35 20.18 2.31 21.01 C2.2 23 2.1 25 2 27 C1.67 27 1.34 27 1 27 C0.67 18.09 0.34 9.18 0 0 Z " fill="#5D5F50" transform="translate(362,39)"/>
<path d="M0 0 C0 3 0 3 -2.12 5.38 C-5.02 8.02 -7.96 10.53 -11 13 C-11 10 -11 10 -9.1 7.77 C-7.88 6.59 -7.88 6.59 -6.62 5.38 C-5.41 4.18 -5.41 4.18 -4.16 2.96 C-2 1 -2 1 0 0 Z " fill="#383D2C" transform="translate(230,119)"/>
<path d="M0 0 C0.81 1.62 0.81 1.62 1 4 C-2.81 9.55 -2.81 9.55 -6.31 10.88 C-6.87 10.92 -7.43 10.96 -8 11 C-5.71 6.91 -3.04 3.54 0 0 Z " fill="#AB7158" transform="translate(244,267)"/>
<path d="M0 0 C2.31 0.19 2.31 0.19 5 1 C6.69 3.56 6.69 3.56 8 6 C8.66 6 9.32 6 10 6 C10.33 7.98 10.66 9.96 11 12 C10.34 11.67 9.68 11.34 9 11 C9 10.34 9 9.68 9 9 C8.44 8.81 7.89 8.63 7.31 8.44 C3.93 6.34 2.15 3.29 0 0 Z " fill="#917868" transform="translate(313,408)"/>
<path d="M0 0 C0.66 0.66 1.32 1.32 2 2 C-1.63 5.63 -5.26 9.26 -9 13 C-9.66 12.67 -10.32 12.34 -11 12 C-7.37 8.04 -3.74 4.08 0 0 Z " fill="#FAE2D0" transform="translate(310,227)"/>
<path d="M0 0 C0.99 0.33 1.98 0.66 3 1 C4.69 5.38 5.3 10.33 5 15 C2.32 12.32 2.17 10.05 1.38 6.38 C0.98 4.59 0.98 4.59 0.59 2.77 C0.39 1.86 0.2 0.94 0 0 Z " fill="#A36F56" transform="translate(222,342)"/>
<path d="M0 0 C0 0.33 0 0.66 0 1 C-0.75 1.13 -1.5 1.27 -2.27 1.4 C-3.74 1.67 -3.74 1.67 -5.25 1.94 C-6.22 2.11 -7.2 2.29 -8.2 2.46 C-10.93 2.93 -10.93 2.93 -13.23 3.69 C-14.11 3.84 -14.11 3.84 -15 4 C-15.66 3.34 -16.32 2.68 -17 2 C-10.83 -0.53 -6.56 -1.31 0 0 Z " fill="#A0684B" transform="translate(349,300)"/>
<path d="M0 0 C0.66 0 1.32 0 2 0 C3.46 2.65 4 3.89 4 7 C4.99 7 5.98 7 7 7 C7.33 5.68 7.66 4.36 8 3 C8.25 5.31 8.25 5.31 8 8 C6 9.81 6 9.81 4 11 C3.33 9.54 2.66 8.08 2 6.62 C1.63 5.81 1.26 5 0.88 4.16 C0 2 0 2 0 0 Z " fill="#544328" transform="translate(311,393)"/>
<path d="M0 0 C-0.98 0.36 -0.98 0.36 -1.98 0.73 C-7.11 2.7 -11.57 4.74 -16 8 C-15.83 6.18 -15.83 6.18 -15 4 C-12.64 2.48 -12.64 2.48 -9.69 1.19 C-8.72 0.75 -7.76 0.31 -6.76 -0.14 C-3.92 -1.02 -2.73 -1.06 0 0 Z " fill="#FBE5D5" transform="translate(317,290)"/>
<path d="M0 0 C0.99 0.33 1.98 0.66 3 1 C1.21 2.51 -0.58 4 -2.38 5.5 C-3.37 6.34 -4.37 7.17 -5.4 8.03 C-8 10 -8 10 -10 10 C-8.81 6.43 -7.55 5.54 -4.62 3.25 C-3.83 2.62 -3.04 1.98 -2.23 1.33 C-1.49 0.89 -0.76 0.45 0 0 Z " fill="#F8DDCB" transform="translate(311,213)"/>
<path d="M0 0 C0.66 0.33 1.32 0.66 2 1 C1.42 1.52 0.85 2.03 0.25 2.56 C-2.47 5.51 -4.1 8.47 -6 12 C-6.71 10.27 -6.71 10.27 -7 8 C-5.57 5.86 -5.57 5.86 -3.56 3.75 C-2.57 2.69 -2.57 2.69 -1.57 1.61 C-1.05 1.08 -0.53 0.55 0 0 Z " fill="#422D12" transform="translate(322,311)"/>
<path d="M0 0 C2.82 0.46 2.82 0.46 6.12 1.38 C7.22 1.67 8.32 1.97 9.45 2.27 C10.29 2.51 11.13 2.75 12 3 C12 3.33 12 3.66 12 4 C6.78 4.18 2.93 3.97 -2 2 C-1.34 1.34 -0.68 0.68 0 0 Z " fill="#8F725B" transform="translate(370,297)"/>
<path d="M0 0 C0.33 0.99 0.66 1.98 1 3 C-1.64 5.31 -4.28 7.62 -7 10 C-7.66 9.67 -8.32 9.34 -9 9 C-6.03 6.03 -3.06 3.06 0 0 Z " fill="#F1D5C1" transform="translate(270,265)"/>
<path d="M0 0 C5.78 4.31 5.78 4.31 6.88 7.81 C6.94 8.9 6.94 8.9 7 10 C6.01 10.5 6.01 10.5 5 11 C4.16 9.54 3.33 8.09 2.5 6.62 C2.04 5.81 1.57 5 1.09 4.16 C0 2 0 2 0 0 Z " fill="#47473A" transform="translate(382,75)"/>
<path d="M0 0 C3.63 0.57 5.26 1.92 7.75 4.56 C8.36 5.2 8.98 5.84 9.61 6.5 C10.07 7 10.53 7.49 11 8 C7.44 8 6.59 7.24 3.81 5.12 C3.1 4.59 2.38 4.06 1.64 3.51 C1.1 3.01 0.56 2.51 0 2 C0 1.34 0 0.68 0 0 Z " fill="#47483B" transform="translate(233,395)"/>
<path d="M0 0 C0 0.33 0 0.66 0 1 C-4.67 2.21 -9.21 2.09 -14 2 C-8.79 -1.47 -5.91 -0.87 0 0 Z " fill="#AD7660" transform="translate(325,290)"/>
<path d="M0 0 C0.99 0.33 1.98 0.66 3 1 C0.69 3.31 -1.62 5.62 -4 8 C-4.99 7.67 -5.98 7.34 -7 7 C-4.69 4.69 -2.38 2.38 0 0 Z " fill="#3E4230" transform="translate(228,208)"/>
<path d="M0 0 C1.13 0.91 2.26 1.83 3.38 2.75 C4 3.26 4.63 3.77 5.27 4.3 C7.08 6.08 8 7.68 9 10 C8.01 10.33 7.02 10.66 6 11 C4.99 9.55 4 8.09 3 6.62 C2.16 5.41 2.16 5.41 1.31 4.16 C0 2 0 2 0 0 Z " fill="#C8CDBC" transform="translate(141,162)"/>
<path d="M0 0 C1.88 0.25 1.88 0.25 4 1 C5.25 3.06 5.25 3.06 6 5 C5.01 5.99 4.02 6.98 3 8 C0 2.25 0 2.25 0 0 Z " fill="#E9EADC" transform="translate(148,172)"/>
<path d="M0 0 C0.66 0.33 1.32 0.66 2 1 C2 1.66 2 2.32 2 3 C1.34 3 0.68 3 0 3 C0 8.28 0 13.56 0 19 C-0.33 19 -0.66 19 -1 19 C-1.03 16.02 -1.05 13.04 -1.06 10.06 C-1.07 9.21 -1.08 8.36 -1.09 7.49 C-1.09 6.68 -1.09 5.87 -1.1 5.04 C-1.1 4.29 -1.11 3.54 -1.11 2.77 C-1 1 -1 1 0 0 Z " fill="#2C311D" transform="translate(365,48)"/>
<path d="M0 0 C0.33 0 0.66 0 1 0 C1.76 5.23 2.21 9.77 1 15 C0.67 15 0.34 15 0 15 C-0.2 13.25 -0.38 11.5 -0.56 9.75 C-0.67 8.78 -0.77 7.8 -0.88 6.8 C-0.99 4.24 -0.78 2.42 0 0 Z " fill="#49341A" transform="translate(307,365)"/>
<path d="M0 0 C0.33 0 0.66 0 1 0 C1.66 4.29 2.32 8.58 3 13 C0.32 9.42 -1 7.26 -2 3 C-1.34 2.01 -0.68 1.02 0 0 Z " fill="#A58877" transform="translate(231,361)"/>
<path d="M0 0 C1.49 0.99 1.49 0.99 3 2 C2.67 4.97 2.34 7.94 2 11 C0 9 0 9 -0.2 6.84 C-0.17 6.02 -0.15 5.21 -0.12 4.38 C-0.11 3.56 -0.09 2.74 -0.07 1.9 C-0.05 1.27 -0.02 0.65 0 0 Z " fill="#A26247" transform="translate(287,325)"/>
<path d="M0 0 C0.99 0.33 1.98 0.66 3 1 C-1.45 4.47 -1.45 4.47 -6 8 C-6.33 7.01 -6.66 6.02 -7 5 C-5.91 4.13 -4.8 3.28 -3.69 2.44 C-3.07 1.96 -2.46 1.49 -1.82 1 C-1.22 0.67 -0.62 0.34 0 0 Z " fill="#F8DFCF" transform="translate(268,244)"/>
<path d="M0 0 C-0.81 1.94 -0.81 1.94 -2 4 C-2.99 4.33 -3.98 4.66 -5 5 C-5.99 4.01 -6.98 3.02 -8 2 C-2.25 0 -2.25 0 0 0 Z " fill="#414130" transform="translate(428,153)"/>
<path d="M0 0 C0.66 0.33 1.32 0.66 2 1 C0.35 3.97 -1.3 6.94 -3 10 C-4 7 -4 7 -2.62 3.88 C-1 1 -1 1 0 0 Z " fill="#FAE0CE" transform="translate(234,277)"/>
</svg>
